<?xml version="1.0" encoding="UTF-8"?>
<svg id="Layer_2" data-name="Layer 2" xmlns="http://www.w3.org/2000/svg" viewBox="0 0 367.65 1083.41">
  <defs>
    <style>
      .cls-1 {
        fill: #424c59;
        stroke-width: 0px;
      }
    </style>
  </defs>
  <g id="OBJECTS">
    <path class="cls-1" d="m366.79,563.32c-2.99-5.27-1.89-14.23-6.06-23.72-4.18-9.49-19.75-24.68-19.75-24.68,9.5-99.46,0-124.13,0-124.13,0,0-5.31-42.14-9.87-59.22-4.55-17.09-6.97-60.6-6.97-60.6,4.69-30.61,4.69-42.28-9.97-64.07-14.67-21.78-46.41-28.9-65.77-36.44-6.72-2.62-12.68-7.02-17.61-11.65h-.05c-3.99-3.84-10.88-11.69-14.43-22.76-1.9-5.91-1.56-12.98,3.33-19.06,4.6-5.71,9.89-13.9,12.14-21.88.71-2.51,1.32-5.31,1.85-8.27,1.56-.85,3.22-1.97,4.22-3.35,2.25-3.12,7.46-15.78,5.9-21.16-1.12-3.85-4.84-2.27-8.19.98-.05-11.02-1.38-22.31-4.48-31.68C225.68,15.2,209.08,0,183.83,0s-41.86,15.2-47.28,31.61c-3.1,9.37-4.43,20.66-4.48,31.68-3.35-3.25-7.07-4.83-8.18-.98-1.56,5.38,3.64,18.04,5.9,21.16,1,1.38,2.66,2.5,4.22,3.35.53,2.97,1.14,5.76,1.85,8.27,2.25,7.98,7.55,16.17,12.14,21.88,4.9,6.08,5.23,13.15,3.33,19.06-3.55,11.08-10.44,18.92-14.43,22.76h-.07c-4.93,4.62-10.87,9.03-17.6,11.65-19.36,7.55-51.1,14.67-65.76,36.44-14.67,21.78-14.67,33.46-9.97,64.07,0,0-2.42,43.52-6.98,60.6-4.56,17.08-9.87,59.22-9.87,59.22,0,0-9.49,24.67,0,124.13,0,0-15.56,15.18-19.75,24.68-4.17,9.49-3.07,18.46-6.05,23.72-2.98,5.27,1.96,12.3,11.76,0l-3.71,42.04s-.28,6.83,3.7,6.84c6.04.02,7.12-36.16,10.82-37.3,3.7-1.14-3.42,41.85,4.56,41.56,7.97-.28,2.56-43.56,7.68-42.99,5.13.57.85,37.58,6.55,37.58s.29-41.56,5.13-41.28c4.84.28,3.7,29.33,9.96,27.61,6.26-1.71-2.28-19.36,1.14-30.47,3.42-11.1,3.71-42.14-5.4-52.1,0,0,29.03-83.7,20.5-126.42,0,0,21.67-46.09,20.27-104.48.79,6.06,9.62,152.89,10.48,161.71,0,0-21.64,115.6-21.07,165.71.57,50.11,17.09,141.22,17.09,141.22l1.71,34.16s-13.66,73.17-6.83,95.37c6.83,22.21,29.04,82.3,27.33,111.34,0,0-8.6,20.58-4.43,38.23,0,0-23.27,42.87-8.46,48.59,10.86,4.19,27.23,3.57,38.14,1.8,10.92-1.76,11.87-13,10.11-20.54l.7-22.3s2.83-11.01,2.83-15.34-.16-16.58-8.66-43.87c0,0-2.71-42.56,6.03-72.93,8.73-30.37-3.04-68.34-6.46-82.76-3.42-14.43-1.14-34.92-1.14-34.92,0,0,16.33-50.5,17.84-92.25,1.51-41.76,9.87-37.59,11.01-87.32,1.14-49.73,0-56.56,0-56.56,0,0,1.13.38,3.8.38s3.79-.38,3.79-.38c0,0-1.14,6.83,0,56.56,1.14,49.73,9.49,45.56,11.01,87.32,1.52,41.75,17.85,92.25,17.85,92.25,0,0,2.28,20.5-1.14,34.92-3.42,14.42-15.19,52.39-6.45,82.76,8.73,30.37,6.02,72.93,6.02,72.93-8.5,27.28-9.35,38.57-9.35,42.9s3.52,16.31,3.52,16.31l.7,22.3c-1.77,7.54-.8,18.78,10.11,20.54,10.91,1.77,28.92.74,37.81-2.54,15.94-5.87-8.13-47.85-8.13-47.85,4.17-17.65-4.43-38.23-4.43-38.23-1.71-29.04,20.5-89.13,27.33-111.34,6.84-22.2-6.83-95.37-6.83-95.37l1.71-34.16s16.51-91.11,17.09-141.22c.56-50.11-21.07-165.71-21.07-165.71.85-8.82,9.69-155.65,10.48-161.71-1.4,58.39,20.27,104.48,20.27,104.48-8.54,42.71,20.5,126.42,20.5,126.42-9.11,9.96-8.82,41.01-5.41,52.1,3.42,11.11-5.13,28.76,1.14,30.47,6.26,1.71,5.12-27.33,9.96-27.61,4.84-.29-.57,41.28,5.12,41.28s1.43-37.01,6.56-37.58c5.12-.57-.29,42.71,7.68,42.99,7.98.29.85-42.7,4.56-41.56,3.7,1.13,4.79,37.52,10.82,37.3,3.68-.13,3.7-6.84,3.7-6.84l-3.71-42.04c9.81,12.3,14.75,5.27,11.77,0Z"/>
  </g>
</svg>