<?xml version="1.0" encoding="UTF-8"?>
<svg id="Layer_2" data-name="Layer 2" xmlns="http://www.w3.org/2000/svg" viewBox="0 0 413 392.62">
  <defs>
    <style>
      .cls-1 {
        stroke-dasharray: 0 0 0 3.03;
      }

      .cls-1, .cls-2, .cls-3, .cls-4, .cls-5, .cls-6, .cls-7, .cls-8, .cls-9, .cls-10, .cls-11, .cls-12, .cls-13, .cls-14, .cls-15 {
        fill: none;
        stroke: #40a5a6;
        stroke-linecap: round;
        stroke-miterlimit: 10;
        stroke-width: 2px;
      }

      .cls-2 {
        stroke-dasharray: 0 0 0 3.05;
      }

      .cls-3 {
        stroke-dasharray: 0 0 0 3.01;
      }

      .cls-4 {
        stroke-dasharray: 0 0 0 2.98;
      }

      .cls-5 {
        stroke-dasharray: 0 0 0 3.01;
      }

      .cls-6 {
        stroke-dasharray: 0 0 0 3.02;
      }

      .cls-7 {
        stroke-dasharray: 0 0 0 2.93;
      }

      .cls-8 {
        stroke-dasharray: 0 0 0 3.05;
      }

      .cls-9 {
        stroke-dasharray: 0 0 0 3.03;
      }

      .cls-10 {
        stroke-dasharray: 0 0 0 3.02;
      }

      .cls-11 {
        stroke-dasharray: 0 0 0 3.01;
      }

      .cls-13 {
        stroke-dasharray: 0 0 0 3;
      }

      .cls-14 {
        stroke-dasharray: 0 0 0 2.95;
      }

      .cls-16 {
        fill: #424c59;
      }

      .cls-16, .cls-17 {
        stroke-width: 0px;
      }

      .cls-17 {
        fill: #40a5a6;
      }

      .cls-15 {
        stroke-dasharray: 0 0 0 2.95;
      }
    </style>
  </defs>
  <g id="OBJECTS">
    <g>
      <path class="cls-16" d="m270.04,200.78c-1.01-1.78-.64-4.81-2.05-8.01-1.41-3.21-6.67-8.33-6.67-8.33,3.21-33.59,0-41.92,0-41.92,0,0-1.79-14.23-3.33-20-1.54-5.77-2.35-20.46-2.35-20.46,1.58-10.34,1.58-14.28-3.37-21.63-4.95-7.35-15.67-9.76-22.21-12.31-2.27-.88-4.28-2.37-5.95-3.93h-.02c-1.35-1.3-3.67-3.95-4.87-7.69-.64-2-.53-4.38,1.12-6.44,1.55-1.93,3.34-4.69,4.1-7.39.24-.85.45-1.79.63-2.79.53-.29,1.09-.67,1.42-1.13.76-1.05,2.52-5.33,1.99-7.15-.38-1.3-1.63-.76-2.76.33-.02-3.72-.47-7.53-1.51-10.7-1.83-5.54-7.44-10.67-15.96-10.67s-14.13,5.13-15.96,10.67c-1.05,3.17-1.5,6.98-1.51,10.7-1.13-1.1-2.39-1.63-2.76-.33-.53,1.82,1.23,6.09,1.99,7.15.34.47.9.85,1.42,1.13.18,1,.39,1.95.63,2.79.76,2.69,2.55,5.46,4.1,7.39,1.65,2.05,1.77,4.44,1.12,6.44-1.2,3.74-3.53,6.39-4.87,7.69h-.02c-1.67,1.56-3.67,3.05-5.94,3.93-6.54,2.55-17.26,4.95-22.21,12.31-4.95,7.36-4.95,11.3-3.37,21.63,0,0-.82,14.7-2.36,20.46-1.54,5.77-3.33,20-3.33,20,0,0-3.2,8.33,0,41.92,0,0-5.26,5.13-6.67,8.33-1.41,3.2-1.04,6.23-2.04,8.01-1.01,1.78.66,4.15,3.97,0l-1.25,14.2s-.09,2.3,1.25,2.31c2.04,0,2.4-12.21,3.65-12.6,1.25-.38-1.15,14.13,1.54,14.04,2.69-.09.86-14.71,2.59-14.52,1.73.19.29,12.69,2.21,12.69s.1-14.04,1.73-13.94c1.64.09,1.25,9.9,3.36,9.32,2.11-.58-.77-6.54.38-10.29,1.16-3.75,1.25-14.23-1.82-17.59,0,0,9.8-28.27,6.92-42.69,0,0,7.32-15.57,6.85-35.28.27,2.05,3.25,51.63,3.54,54.61,0,0-7.31,39.04-7.12,55.96.19,16.92,5.77,47.69,5.77,47.69l.58,11.54s-4.61,24.71-2.31,32.21c2.31,7.5,9.81,27.79,9.23,37.6,0,0-2.91,6.95-1.49,12.91,0,0-7.86,14.48-2.86,16.41,3.67,1.42,9.2,1.2,12.88.61,3.69-.6,4.01-4.39,3.41-6.94l.24-7.53s.96-3.72.96-5.18-.05-5.6-2.93-14.81c0,0-.91-14.37,2.03-24.63,2.95-10.26-1.03-23.08-2.18-27.95-1.15-4.87-.38-11.79-.38-11.79,0,0,5.51-17.05,6.03-31.15.51-14.1,3.33-12.69,3.72-29.49.39-16.79,0-19.1,0-19.1,0,0,.38.13,1.28.13s1.28-.13,1.28-.13c0,0-.38,2.31,0,19.1.38,16.79,3.2,15.39,3.72,29.49.51,14.1,6.03,31.15,6.03,31.15,0,0,.77,6.92-.38,11.79-1.15,4.87-5.13,17.69-2.18,27.95,2.95,10.26,2.03,24.63,2.03,24.63-2.87,9.21-3.16,13.02-3.16,14.49s1.19,5.51,1.19,5.51l.24,7.53c-.6,2.55-.27,6.34,3.41,6.94,3.68.6,9.77.25,12.77-.86,5.38-1.98-2.74-16.16-2.74-16.16,1.41-5.96-1.5-12.91-1.5-12.91-.58-9.81,6.92-30.1,9.23-37.6,2.31-7.5-2.31-32.21-2.31-32.21l.58-11.54s5.58-30.77,5.77-47.69c.19-16.92-7.12-55.96-7.12-55.96.29-2.98,3.27-52.56,3.54-54.61-.47,19.72,6.85,35.28,6.85,35.28-2.88,14.42,6.92,42.69,6.92,42.69-3.08,3.36-2.98,13.85-1.83,17.59,1.15,3.75-1.73,9.71.38,10.29,2.12.58,1.73-9.23,3.36-9.32,1.64-.1-.19,13.94,1.73,13.94s.48-12.5,2.21-12.69c1.73-.19-.1,14.42,2.59,14.52,2.69.1.29-14.42,1.54-14.04,1.25.38,1.62,12.67,3.65,12.6,1.24-.05,1.25-2.31,1.25-2.31l-1.25-14.2c3.31,4.15,4.98,1.78,3.98,0Z"/>
      <g>
        <circle class="cls-17" cx="330.5" cy="51" r="51"/>
        <path class="cls-16" d="m354.99,41.75c-.03-.58-.36-.67-.36-.67,0,0,.47-.85-.48-3.12-.94-2.28-1.07-2.03-1.07-2.03,0,0,.2-1.56-.65-2.89-.84-1.33-1.83-1.59-1.83-1.59,0,0-.42-3.15-2.3-3.44,0,0,.16-.95-.94-1.69-1.1-.75-1.73-1.11-1.73-1.11,0,0-.06-.55-.98-1.07-.91-.53-1.82-.46-1.82-.46,0,0,.59-.74-2.34-1.88-2.92-1.13-2.6-.68-2.6-.68,0,0-1.46-1.11-4.45-1.11s-3.51.03-3.74.59c0,0-.97-.75-4.42-.2-3.44.55-4.93.22-6.14,1.2-1.2.98-5.38,2.24-5.6,3.02-1.35.64-2.61,2.15-2.32,2.67,0,0-1.4-.24-2.5,1.92-1.1,2.15-1.68,4.64-1.68,4.64,0,0-.63.52-.52,1.52,0,0-.81,1.68-.58,3.48.23,1.8,1.28,1.97,1.28,2.73,0,0-.7,1.63,1.46,3.19,2.14,1.56,3.89,1.28,3.89,1.28,0,0,2.72.87,3.65.29,0,0,1.52-.47,1.4.2,0,0-.7.67-.64,1.31,0,0-.46.99,0,1.8.47.81.82.52.99,1.05.18.52-.27.98.37,1.76.66.78,1.72.36,1.92.65.2.29,3.28,2.5,7.24,1.17,0,0,.98.07,1.69-.33.72-.39,2.11-1.5,2.11-1.5l2.4-.28.72,1.19s-.29.86.65,1.64c.94.78,1.6.19,1.6.19,0,0,1.03.38,1.52.9.22.23.4.54.58.8-.2.76-.42,1.56-.61,2.42-.21.91-.42,1.87-.59,2.86-.2.99-.35,2.03-.51,3.08-.16,1.05-.27,2.12-.4,3.19-.09,1.07-.18,2.14-.27,3.2-.05,1.06-.1,2.1-.15,3.1,0,1.01-.02,1.98-.03,2.9-.01.92.04,1.79.06,2.59.03.8.03,1.54.09,2.19.05.65.09,1.22.12,1.68.07.93.11,1.47.11,1.47,0,0,0-.53,0-1.47,0-.47,0-1.03,0-1.69-.01-.65.03-1.38.06-2.18.04-.8.04-1.67.12-2.58.07-.91.15-1.87.23-2.87.12-.99.24-2.01.36-3.05.16-1.03.32-2.08.49-3.13.21-1.04.38-2.09.61-3.1.24-1.02.45-2.02.71-2.97.24-.96.51-1.88.77-2.75.25-.87.54-1.68.79-2.42.2-.56.39-1.07.57-1.54,1.3-.2,7.33-1.38,8.57-5.9l1.36-.29s2.54-.88,2.54-3.25c0,0,1.23-1.69.68-3.38,0,0,.58-.68.55-1.27Z"/>
        <g>
          <line class="cls-12" x1="294.51" y1="29.5" x2="294.51" y2="29.5"/>
          <line class="cls-13" x1="291.51" y1="29.5" x2="209.14" y2="29.5"/>
          <line class="cls-12" x1="207.65" y1="29.5" x2="207.65" y2="29.5"/>
        </g>
        <circle class="cls-17" cx="207.65" cy="29.5" r="5.25"/>
      </g>
      <g>
        <circle class="cls-17" cx="82.5" cy="51" r="51"/>
        <path class="cls-16" d="m107.7,50.16s-5.01-25.94-20.79-25.94c0,0,.74,6.06.81,11.62-.03-.02-.07-.03-.1-.04-.75-.19-1.52-.49-2.33-.6-.31-.03-.62-.07-.93-.11v-11.72h-3.09v11.74c-.32.03-.64.02-.95.07-.82.07-1.59.37-2.34.58-.24.08-.45.19-.68.28.06-5.61.81-11.82.81-11.82-15.78,0-20.8,25.94-20.8,25.94,0,0-3.3,3.67-3.3,8.81s4.04,13.33,5.99,13.58c1.96.25,5.63-1.23,10.04-4.65,4.4-3.43,10.64-4.77,11.38-12.23.73-7.46-3.3-11.99-3.3-11.99-.47-1.12-.7-2.94-.78-5.02.43-.09.87-.19,1.33-.27,1.33-.19,2.72-.38,4.13-.32.71-.06,1.4.08,2.1.09.69.09,1.37.18,2.03.27.27.06.51.11.78.17-.08,2.1-.31,3.94-.78,5.07,0,0-4.04,4.53-3.31,11.99.74,7.46,6.97,8.81,11.38,12.23,4.4,3.42,8.08,4.89,10.03,4.65,1.96-.24,6-8.44,6-13.58s-3.31-8.81-3.31-8.81Z"/>
        <g>
          <line class="cls-12" x1="207" y1="92" x2="207" y2="92"/>
          <line class="cls-3" x1="203.99" y1="92" x2="85.01" y2="92"/>
          <line class="cls-12" x1="83.51" y1="92" x2="83.51" y2="92"/>
        </g>
        <circle class="cls-17" cx="207" cy="92" r="5.25"/>
      </g>
      <g>
        <circle class="cls-17" cx="362" cy="196.31" r="51"/>
        <path class="cls-16" d="m382.04,185.4s9.46,9.14,2.28,22.24c0,0-1.56,6.24-13.4,12.26-11.85,6.03-24.11,7.17-28.99-1.03-4.89-8.22,3.68-23.29,6.72-25.42,0,0,.99-5.22,9.56-6.76,0,0,3.39-3.06.31-2.86-3.09.2-7.53.37-8.13-.92-.59-1.3.07-6.59,1.9-7.07,1.84-.5,5.53,1.28,5.53,1.28,0,0,2.19-5.38-3.29-6.48,0,0,.85-3.88,3.93-3.54l.15-2.14s.55-.74,1.59-.7c1.05.05,1.89.7,1.89.7l.1,1.54,1.11-.1.38-1.65s.25-.84,1.74-.49c1.5.35,1.35,1.49,1.35,1.49,0,0,.1,1.7.1,1.85s.99,1.24,2.04.55l1.2-2.64s2.19-.75,3.04,1.7c0,0-2.09,3.33.29,5.63,0,0,1.79,2.39,1.74,6.77,0,0,.65-5.48-.3-7.17,0,0,1.1-1.35,3.38-.4,0,0,.05,3.84,1.06,3.89.99.05,1.19-3.7,1.19-3.7,0,0,.25-.85,2.14-.29,1.89.54,1.84,1.64,1.84,1.64,0,0-6.34,4.72-2.47,11.84Z"/>
        <g>
          <line class="cls-12" x1="217.51" y1="110" x2="217.51" y2="110"/>
          <line class="cls-2" x1="220.55" y1="110" x2="279.98" y2="110"/>
          <line class="cls-12" x1="281.51" y1="110" x2="281.51" y2="110"/>
          <line class="cls-1" x1="281.51" y1="113.03" x2="281.51" y2="199.5"/>
          <line class="cls-12" x1="281.51" y1="201.01" x2="281.51" y2="201.01"/>
          <line class="cls-9" x1="284.54" y1="201.01" x2="325.49" y2="201.01"/>
          <line class="cls-12" x1="327.01" y1="201.01" x2="327.01" y2="201.01"/>
        </g>
        <circle class="cls-17" cx="217.51" cy="110" r="5.25"/>
      </g>
      <g>
        <circle class="cls-17" cx="330.5" cy="341.62" r="51"/>
        <path class="cls-16" d="m354.8,336.85c1.08-5.54-2.53-10.92-8.07-12-2.17-.42-4.3-.11-6.17.74-2.18-6.52.93-15.77.97-15.89l-4.2-2.48c-.21.59-4.14,13.23-.49,21.27-1.01,1.25-1.78,2.74-2.11,4.43-1.89,9.66-5.19,11.79-9.23,11.25-2.14-.42-4.24.09-5.9,1.24-2.1-1.35-4.84-2.67-7.56-2.58-1.95.07-3.68.87-5,2.31-5.57,6.09,1.4,26.84,1.67,27.28l5.68,1.2c-1.28-2-7.78-21.47-4.04-25.45.51-.55,1.07-.82,1.83-.85,1.4-.05,3.1.72,4.61,1.64-.17.43-.31.87-.4,1.34-.82,4.2,1.92,8.28,6.13,9.1,30.44,11.22,32.27-22.56,32.27-22.56Z"/>
        <g>
          <line class="cls-12" x1="213.51" y1="133" x2="213.51" y2="133"/>
          <line class="cls-15" x1="216.46" y1="133" x2="300.53" y2="133"/>
          <line class="cls-12" x1="302.01" y1="133" x2="302.01" y2="133"/>
          <line class="cls-5" x1="302.01" y1="136.01" x2="302.01" y2="321"/>
          <line class="cls-12" x1="302.01" y1="322.5" x2="302.01" y2="322.5"/>
        </g>
        <circle class="cls-17" cx="213.51" cy="133" r="5.25"/>
      </g>
      <g>
        <circle class="cls-17" cx="51" cy="196.31" r="51"/>
        <path class="cls-16" d="m58.25,183.08s-2.19-1.75-6.81-1.65c-4.61.11-5.49.66-7.58.82-2.1.17-10.22.17-14.61,6.54-4.4,6.38-4.51,16.04-2.53,19.89,0,0,1.87,9.12.12,11.32,0,0,.1,4.17,11.31-2.97,0,0,8.35.22,12.08-2.41,3.74-2.64,9.45-9.34,9.45-9.34,0,0,9.01-2.87,9.67-4.35.66-1.48,4.62-3.67,5.39-3.89.76-.22,2.52-5.06,3.62-6.37,1.1-1.32,5.49-5.06,3.74-8.35-1.75-3.3-8.56-.11-11.31,0-2.74.11-8.58-1.76-12.53.77Z"/>
        <g>
          <line class="cls-12" x1="199.51" y1="150.5" x2="199.51" y2="150.5"/>
          <line class="cls-10" x1="196.49" y1="150.5" x2="128.52" y2="150.5"/>
          <line class="cls-12" x1="127.01" y1="150.5" x2="127.01" y2="150.5"/>
          <line class="cls-8" x1="127.01" y1="153.55" x2="127.01" y2="194.78"/>
          <line class="cls-12" x1="127.01" y1="196.31" x2="127.01" y2="196.31"/>
          <line class="cls-7" x1="124.08" y1="196.31" x2="87.47" y2="196.31"/>
          <line class="cls-12" x1="86.01" y1="196.31" x2="86.01" y2="196.31"/>
        </g>
        <circle class="cls-17" cx="199.51" cy="150.5" r="5.25"/>
      </g>
      <g>
        <circle class="cls-17" cx="82.5" cy="341.62" r="51"/>
        <path class="cls-16" d="m112.57,343.78c1.09-1.06,1.77-2.54,1.77-4.18s-.63-3-1.65-4.05c.31-.68.49-1.44.49-2.23,0-1.93-1.01-3.62-2.52-4.59.17-.6.29-1.22.29-1.88,0-3.76-3.05-6.8-6.81-6.8-2.91,0-5.38,1.84-6.35,4.41-.56-.23-1.17-.36-1.81-.36-1.79,0-3.35,1-4.18,2.45-.75-.38-1.58-.62-2.48-.62-1.52,0-2.89.61-3.89,1.61-.92-.74-2.07-1.21-3.34-1.21s-2.38.45-3.29,1.17c-.96-.87-2.23-1.41-3.63-1.41-.81,0-1.56.18-2.25.49-.87-1.09-2.19-1.8-3.69-1.8-.11,0-.22.03-.32.04-.99-2.18-3.17-3.7-5.71-3.7-3.07,0-5.62,2.21-6.16,5.13-2.07.81-3.54,2.82-3.54,5.18,0,.85.2,1.65.55,2.36-1.43,1.07-2.38,2.78-2.38,4.7,0,.12.03.22.04.33-.84,1.17-1.34,2.59-1.34,4.14,0,1.73.65,3.31,1.68,4.55-.23.68-.38,1.39-.38,2.15,0,1.52.49,2.91,1.31,4.06-.15.59-.25,1.2-.25,1.83,0,4.08,3.31,7.39,7.39,7.39s7.39-3.31,7.39-7.39c0-1.91-.74-3.63-1.93-4.94.04-.31.1-.62.1-.94,0-1.6-.56-3.06-1.47-4.25.28-.77.46-1.58.46-2.45,0-1.5-.46-2.89-1.25-4.04,0-.14.05-.28.05-.43,0-1.04-.29-2-.77-2.85.66-.57,1.2-1.27,1.54-2.08.64-.1,1.24-.31,1.8-.6.84.79,1.97,1.28,3.21,1.28.4,0,.77-.06,1.14-.16.92,1.73,2.71,2.91,4.79,2.91,1.33,0,2.53-.49,3.48-1.29.93.8,2.12,1.29,3.44,1.29,1.39,0,2.63-.54,3.58-1.41.98.86,2.24,1.41,3.65,1.41,2.33,0,4.32-1.46,5.13-3.51.48.16.99.27,1.52.27,1.51,0,2.83-.7,3.71-1.78.74.64,1.61,1.12,2.57,1.39,0,1.26.46,2.4,1.18,3.32-.5.86-.81,1.85-.81,2.92,0,.31.05.6.09.9-.8.44-1.49,1.03-2.06,1.73-1.04.36-1.98.92-2.78,1.63-.64-.28-1.34-.45-2.08-.45-1.69,0-3.17.82-4.1,2.07-.97-.69-2.13-1.1-3.41-1.1-3.22,0-5.84,2.61-5.84,5.84,0,.21.04.42.06.63-2.14,1.05-3.63,3.24-3.63,5.79,0,1.77.72,3.37,1.87,4.54-1.15,1.17-1.87,2.77-1.87,4.54,0,3,2.05,5.49,4.82,6.23.09.22.22.44.32.67.43,1.19,1.16,2.36,1.16,2.36h.34s.74-1.18,1.16-2.36c.1-.23.23-.45.33-.67,2.77-.73,4.82-3.23,4.82-6.23,0-1.77-.72-3.37-1.87-4.54,1.15-1.16,1.87-2.77,1.87-4.54,0-.56-.1-1.09-.23-1.6.74-.51,1.34-1.19,1.78-1.98.73.39,1.55.64,2.44.64h0c1.33,2.9,4.24,4.92,7.65,4.92,4.48,0,8.1-3.5,8.39-7.9.82-1.14,1.31-2.55,1.31-4.07,0-1.02-.23-1.98-.62-2.86Z"/>
        <g>
          <line class="cls-12" x1="207.65" y1="166.5" x2="207.65" y2="166.5"/>
          <line class="cls-14" x1="204.69" y1="166.5" x2="141.23" y2="166.5"/>
          <line class="cls-12" x1="139.76" y1="166.5" x2="139.76" y2="166.5"/>
          <line class="cls-4" x1="139.76" y1="169.48" x2="139.76" y2="260.51"/>
          <line class="cls-12" x1="139.76" y1="262" x2="139.76" y2="262"/>
          <line class="cls-6" x1="136.74" y1="262" x2="83.88" y2="262"/>
          <line class="cls-12" x1="82.37" y1="262" x2="82.37" y2="262"/>
          <line class="cls-11" x1="82.37" y1="265.01" x2="82.37" y2="305.72"/>
          <line class="cls-12" x1="82.37" y1="307.22" x2="82.37" y2="307.22"/>
        </g>
        <circle class="cls-17" cx="207.65" cy="166.5" r="5.25"/>
      </g>
    </g>
  </g>
</svg>